<?xml version="1.0" encoding="utf-8"?>
<!-- Generator: Adobe Illustrator 27.3.1, SVG Export Plug-In . SVG Version: 6.00 Build 0)  -->
<svg version="1.1" id="Слой_1" xmlns="http://www.w3.org/2000/svg" xmlns:xlink="http://www.w3.org/1999/xlink" x="0px" y="0px"
	 viewBox="0 0 100 100" style="enable-background:new 0 0 100 100;" xml:space="preserve">
<style type="text/css">
	.st0{fill:#FFFFFF;stroke:#000000;stroke-width:5;stroke-miterlimit:10;}
	.st1{fill:none;stroke:#000000;stroke-width:5;stroke-miterlimit:10;}
	.st2{fill:none;stroke:#BEBEBE;stroke-width:5;stroke-miterlimit:10;}
	.st3{fill:#BEBEBE;}
</style>
<path class="st0" d="M31.6,37.5H17.5c-2.6,0-4.7,2.2-4.7,5v15c0,2.7,2.1,5,4.7,5h14.1"/>
<path d="M31.6,40L31.6,40c-1.3,0-2.4-1.1-2.4-2.5l0,0c0-1.4,1-2.5,2.4-2.5l0,0c1.3,0,2.4,1.1,2.4,2.5l0,0C33.9,38.9,32.9,40,31.6,40
	z"/>
<path d="M31.6,65L31.6,65c-1.3,0-2.4-1.1-2.4-2.5l0,0c0-1.4,1-2.5,2.4-2.5l0,0c1.3,0,2.4,1.1,2.4,2.5l0,0C33.9,63.9,32.9,65,31.6,65
	z"/>
<path d="M51.6,90L51.6,90c-1.4,0-2.5-1.1-2.5-2.5v-75c0-1.4,1.1-2.5,2.5-2.5l0,0c1.4,0,2.5,1.1,2.5,2.5v75C54.1,88.9,53,90,51.6,90z
	"/>
<g>
	<path class="st1" d="M59.2,40c5.2,0,9.4,4.5,9.4,10s-4.2,10-9.4,10"/>
	<path d="M59.2,42.5L59.2,42.5c-1.3,0-2.4-1.1-2.4-2.5l0,0c0-1.4,1-2.5,2.4-2.5l0,0c1.3,0,2.4,1.1,2.4,2.5l0,0
		C61.5,41.4,60.5,42.5,59.2,42.5z"/>
	<path d="M59.2,62.5L59.2,62.5c-1.3,0-2.4-1.1-2.4-2.5l0,0c0-1.4,1-2.5,2.4-2.5l0,0c1.3,0,2.4,1.1,2.4,2.5l0,0
		C61.5,61.4,60.5,62.5,59.2,62.5z"/>
</g>
<g>
	<path class="st2" d="M59.2,29.4c10.4,0,18.8,9,18.8,20s-8.5,20-18.8,20"/>
	<path class="st3" d="M59.2,71.9L59.2,71.9c-1.3,0-2.4-1.1-2.4-2.5l0,0c0-1.4,1-2.5,2.4-2.5l0,0c1.3,0,2.4,1.1,2.4,2.5l0,0
		C61.5,70.8,60.5,71.9,59.2,71.9z"/>
	<path class="st3" d="M59,31.9L59,31.9c-1.3,0-2.4-1.1-2.4-2.5l0,0c0-1.4,1-2.5,2.4-2.5l0,0c1.3,0,2.4,1.1,2.4,2.5l0,0
		C61.3,30.8,60.2,31.9,59,31.9z"/>
</g>
<g>
	<path class="st2" d="M59,19.4c15.6,0,28.3,13.4,28.3,30s-12.6,30-28.3,30"/>
	<path class="st3" d="M59,21.9L59,21.9c-1.3,0-2.4-1.1-2.4-2.5l0,0c0-1.4,1-2.5,2.4-2.5l0,0c1.3,0,2.4,1.1,2.4,2.5l0,0
		C61.3,20.8,60.2,21.9,59,21.9z"/>
	<path class="st3" d="M59,81.9L59,81.9c-1.3,0-2.4-1.1-2.4-2.5l0,0c0-1.4,1-2.5,2.4-2.5l0,0c1.3,0,2.4,1.1,2.4,2.5l0,0
		C61.3,80.8,60.2,81.9,59,81.9z"/>
</g>
<path d="M52.9,85.5L33.4,60.8c-0.8-1-2.2-1.1-3.1-0.3L30,60.7c-0.9,0.8-1.1,2.3-0.3,3.3l19.5,24.7c0.8,1,2.2,1.1,3.1,0.3l0.2-0.2
	C53.5,88,53.6,86.5,52.9,85.5z"/>
<path d="M52.9,14.5L33.4,39.2c-0.8,1-2.2,1.1-3.1,0.3L30,39.3c-0.9-0.8-1.1-2.3-0.3-3.3l19.5-24.7c0.8-1,2.2-1.1,3.1-0.3l0.2,0.2
	C53.5,12,53.6,13.5,52.9,14.5z"/>
</svg>
