<?xml version="1.0" encoding="utf-8"?>
<!-- Generator: Adobe Illustrator 27.3.1, SVG Export Plug-In . SVG Version: 6.00 Build 0)  -->
<svg version="1.1" id="Слой_1" xmlns="http://www.w3.org/2000/svg" xmlns:xlink="http://www.w3.org/1999/xlink" x="0px" y="0px"
	 viewBox="0 0 100 100" style="enable-background:new 0 0 100 100;" xml:space="preserve">
<style type="text/css">
	.st0{fill:#FFFFFF;stroke:#000000;stroke-width:5;stroke-miterlimit:10;}
</style>
<g>
	<path class="st0" d="M31.6,37.5H17.5c-2.6,0-4.7,2.2-4.7,5v15c0,2.7,2.1,5,4.7,5h14.1"/>
	<path d="M31.6,40L31.6,40c-1.3,0-2.4-1.1-2.4-2.5l0,0c0-1.4,1-2.5,2.4-2.5l0,0c1.3,0,2.4,1.1,2.4,2.5l0,0
		C33.9,38.9,32.9,40,31.6,40z"/>
	<path d="M31.6,65L31.6,65c-1.3,0-2.4-1.1-2.4-2.5l0,0c0-1.4,1-2.5,2.4-2.5l0,0c1.3,0,2.4,1.1,2.4,2.5l0,0
		C33.9,63.9,32.9,65,31.6,65z"/>
	<path d="M51.6,90L51.6,90c-1.4,0-2.5-1.1-2.5-2.5v-75c0-1.4,1.1-2.5,2.5-2.5l0,0c1.4,0,2.5,1.1,2.5,2.5v75C54.1,88.9,53,90,51.6,90
		z"/>
	<path d="M52.9,85.5L33.4,60.8c-0.8-1-2.2-1.1-3.1-0.3L30,60.7c-0.9,0.8-1.1,2.3-0.3,3.3l19.5,24.7c0.8,1,2.2,1.1,3.1,0.3l0.2-0.2
		C53.5,88,53.6,86.5,52.9,85.5z"/>
	<path d="M52.9,14.5L33.4,39.2c-0.8,1-2.2,1.1-3.1,0.3L30,39.3c-0.9-0.8-1.1-2.3-0.3-3.3l19.5-24.7c0.8-1,2.2-1.1,3.1-0.3l0.2,0.2
		C53.5,12,53.6,13.5,52.9,14.5z"/>
	<path d="M78.8,58.8L78.8,58.8c-1,1-2.6,1-3.5,0L61.2,44.7c-1-1-1-2.6,0-3.5l0,0c1-1,2.6-1,3.5,0l14.1,14.1
		C79.8,56.3,79.8,57.9,78.8,58.8z"/>
	<path d="M78.8,41.2L78.8,41.2c-1-1-2.6-1-3.5,0L61.2,55.3c-1,1-1,2.6,0,3.5l0,0c1,1,2.6,1,3.5,0l14.1-14.1
		C79.8,43.7,79.8,42.1,78.8,41.2z"/>
</g>
</svg>
