<?xml version="1.0" encoding="utf-8"?>
<!-- Generator: Adobe Illustrator 27.3.1, SVG Export Plug-In . SVG Version: 6.00 Build 0)  -->
<svg version="1.1" id="Слой_1" xmlns="http://www.w3.org/2000/svg" xmlns:xlink="http://www.w3.org/1999/xlink" x="0px" y="0px"
	 viewBox="0 0 100 100" style="enable-background:new 0 0 100 100;" xml:space="preserve">
<style type="text/css">
	.st0{fill:#FFFFFF;stroke:#000000;stroke-width:5;stroke-miterlimit:10;}
	.st1{fill:none;stroke:#000000;stroke-width:5;stroke-miterlimit:10;}
</style>
<path class="st0" d="M77.8,90h-56c-6.6,0-12-5.4-12-12V22c0-6.6,5.4-12,12-12h56c6.6,0,12,5.4,12,12v56C89.8,84.6,84.4,90,77.8,90z"
	/>
<path d="M60.4,25.2H29.3c-1.4,0-2.5-1.1-2.5-2.5v0c0-1.4,1.1-2.5,2.5-2.5h31.1c1.4,0,2.5,1.1,2.5,2.5v0
	C62.9,24.1,61.8,25.2,60.4,25.2z"/>
<path class="st1" d="M60.7,22.8c5.5,0,10,4.5,10,10"/>
<path d="M73.2,32.2v15c0,1.4-1.1,2.5-2.5,2.5h0c-1.4,0-2.5-1.1-2.5-2.5v-15c0-1.4,1.1-2.5,2.5-2.5h0C72.1,29.8,73.2,30.9,73.2,32.2z
	"/>
<path d="M68.9,49l-8.8-8.8c-1-1-1-2.6,0-3.5l0,0c1-1,2.6-1,3.5,0l8.8,8.8c1,1,1,2.6,0,3.5v0C71.5,50,69.9,50,68.9,49z"/>
<path d="M81.3,40.2L72.5,49c-1,1-2.6,1-3.5,0v0c-1-1-1-2.6,0-3.5l8.8-8.8c1-1,2.6-1,3.5,0l0,0C82.2,37.6,82.2,39.2,81.3,40.2z"/>
<path d="M39.6,74.8h31.1c1.4,0,2.5,1.1,2.5,2.5l0,0c0,1.4-1.1,2.5-2.5,2.5H39.6c-1.4,0-2.5-1.1-2.5-2.5l0,0
	C37.1,75.9,38.2,74.8,39.6,74.8z"/>
<path class="st1" d="M39.3,77.2c-5.5,0-10-4.5-10-10"/>
<path d="M26.8,67.8v-15c0-1.4,1.1-2.5,2.5-2.5h0c1.4,0,2.5,1.1,2.5,2.5v15c0,1.4-1.1,2.5-2.5,2.5h0C27.9,70.2,26.8,69.1,26.8,67.8z"
	/>
<path d="M31.1,51l8.8,8.8c1,1,1,2.6,0,3.5l0,0c-1,1-2.6,1-3.5,0l-8.8-8.8c-1-1-1-2.6,0-3.5l0,0C28.5,50,30.1,50,31.1,51z"/>
<path d="M18.7,59.8l8.8-8.8c1-1,2.6-1,3.5,0l0,0c1,1,1,2.6,0,3.5l-8.8,8.8c-1,1-2.6,1-3.5,0l0,0C17.8,62.4,17.8,60.8,18.7,59.8z"/>
</svg>
