<?xml version="1.0" encoding="utf-8"?>
<!-- Generator: Adobe Illustrator 27.3.1, SVG Export Plug-In . SVG Version: 6.00 Build 0)  -->
<svg version="1.1" id="Слой_1" xmlns="http://www.w3.org/2000/svg" xmlns:xlink="http://www.w3.org/1999/xlink" x="0px" y="0px"
	 viewBox="0 0 100 100" style="enable-background:new 0 0 100 100;" xml:space="preserve">
<style type="text/css">
	.st0{clip-path:url(#SVGID_00000148638015197164382330000002007564464549760675_);}
	.st1{fill:none;stroke:#000000;stroke-width:3;stroke-miterlimit:10;}
</style>
<g>
	<defs>
		<rect id="SVGID_1_" y="4" width="100" height="91.9"/>
	</defs>
	<clipPath id="SVGID_00000041287419139356694190000009923509124135008683_">
		<use xlink:href="#SVGID_1_"  style="overflow:visible;"/>
	</clipPath>
	<g style="clip-path:url(#SVGID_00000041287419139356694190000009923509124135008683_);">
		<path d="M65,9.3c5.2,0,10,2.8,12.6,7.3l15,26.1c2.6,4.5,2.6,10.1,0,14.6l-15,26.1c-2.6,4.5-7.4,7.3-12.6,7.3H35
			c-5.2,0-10-2.8-12.6-7.3l-15-26.1c-2.6-4.5-2.6-10.1,0-14.6l15-26.1c2.6-4.5,7.4-7.3,12.6-7.3H65z M65,4H35
			c-7.1,0-13.7,3.8-17.3,10L2.7,40c-3.6,6.2-3.6,13.7,0,19.9l15,26.1c3.6,6.2,10.1,10,17.3,10H65c7.1,0,13.7-3.8,17.3-10l15-26.1
			c3.6-6.2,3.6-13.7,0-19.9L82.3,14C78.7,7.8,72.2,4,65,4z"/>
	</g>
</g>
<path class="st1" d="M46.5,80h-23c-0.5,0-1-0.4-1-1V21c0-0.5,0.4-1,1-1h23c0.5,0,1,0.4,1,1v58C47.5,79.6,47,80,46.5,80z"/>
<path class="st1" d="M76.5,50h-23c-0.5,0-1-0.5-1-1V21c0-0.5,0.5-1,1-1h23c0.6,0,1,0.4,1,1v28C77.5,49.5,77.1,50,76.5,50z"/>
<path class="st1" d="M76.5,80h-23c-0.5,0-1-0.4-1-1V56c0-0.5,0.5-1,1-1h23c0.6,0,1,0.5,1,1v23C77.5,79.6,77.1,80,76.5,80z"/>
</svg>
