<?xml version="1.0" encoding="utf-8"?>
<!-- Generator: Adobe Illustrator 27.3.1, SVG Export Plug-In . SVG Version: 6.00 Build 0)  -->
<svg version="1.1" id="Слой_1" xmlns="http://www.w3.org/2000/svg" xmlns:xlink="http://www.w3.org/1999/xlink" x="0px" y="0px"
	 viewBox="0 0 100 100" style="enable-background:new 0 0 100 100;" xml:space="preserve">
<style type="text/css">
	.st0{clip-path:url(#SVGID_00000017489357071578069550000015938535133189583016_);}
	.st1{fill:none;stroke:#000000;stroke-width:3;stroke-miterlimit:10;}
</style>
<g>
	<g>
		<g>
			<defs>
				<rect id="SVGID_1_" y="4" width="100" height="91.9"/>
			</defs>
			<clipPath id="SVGID_00000086669373700123069960000012334992862184398232_">
				<use xlink:href="#SVGID_1_"  style="overflow:visible;"/>
			</clipPath>
			<g style="clip-path:url(#SVGID_00000086669373700123069960000012334992862184398232_);">
				<path d="M65,9.3c5.2,0,10,2.8,12.6,7.3l15,26.1c2.6,4.5,2.6,10.1,0,14.6l-15,26.1c-2.6,4.5-7.4,7.3-12.6,7.3H35
					c-5.2,0-10-2.8-12.6-7.3l-15-26.1c-2.6-4.5-2.6-10.1,0-14.6l15-26.1C25,12.1,29.8,9.3,35,9.3H65z M65,4H35
					c-7.1,0-13.7,3.8-17.3,10l-15,26c-3.6,6.2-3.6,13.7,0,19.9l15,26.1c3.6,6.2,10.1,10,17.3,10h30c7.1,0,13.7-3.8,17.3-10l15-26.1
					c3.6-6.2,3.6-13.7,0-19.9l-15-26C78.7,7.8,72.2,4,65,4z"/>
			</g>
		</g>
	</g>
</g>
<g>
	<path d="M28.2,68.5L28.2,68.5c-0.7-0.4-1-1.3-0.5-2l6-10.4c0.4-0.7,1.3-1,2-0.5l0,0c0.7,0.4,1,1.3,0.5,2l-6,10.4
		C29.9,68.7,29,68.9,28.2,68.5z"/>
	<path d="M35,38.3L35,38.3c-0.8,0-1.5,0.7-1.5,1.5v17c0,0.8,0.7,1.5,1.5,1.5l0,0c0.8,0,1.5-0.7,1.5-1.5v-17
		C36.5,38.9,35.8,38.3,35,38.3z"/>
	<path class="st1" d="M35,39.8c0-8.3,6.7-15,15-15s15,6.7,15,15"/>
	<path d="M71,68.7H29c-0.8,0-1.5-0.7-1.5-1.5l0,0c0-0.8,0.7-1.5,1.5-1.5h42c0.8,0,1.5,0.7,1.5,1.5l0,0C72.5,68.1,71.8,68.7,71,68.7z
		"/>
	<path d="M71.8,68.5L71.8,68.5c0.7-0.4,1-1.3,0.5-2l-6-10.4c-0.4-0.7-1.3-1-2-0.5l0,0c-0.7,0.4-1,1.3-0.5,2l6,10.4
		C70.1,68.7,71,68.9,71.8,68.5z"/>
	<path d="M65,38.3L65,38.3c0.8,0,1.5,0.7,1.5,1.5v17c0,0.8-0.7,1.5-1.5,1.5l0,0c-0.8,0-1.5-0.7-1.5-1.5v-17
		C63.5,38.9,64.2,38.3,65,38.3z"/>
	<path class="st1" d="M56.5,68.7c0,3.6-2.9,6.5-6.5,6.5s-6.5-2.9-6.5-6.5"/>
</g>
</svg>
