<?xml version="1.0" encoding="utf-8"?>
<!-- Generator: Adobe Illustrator 27.3.1, SVG Export Plug-In . SVG Version: 6.00 Build 0)  -->
<svg version="1.1" id="Слой_1" xmlns="http://www.w3.org/2000/svg" xmlns:xlink="http://www.w3.org/1999/xlink" x="0px" y="0px"
	 viewBox="0 0 100 100" style="enable-background:new 0 0 100 100;" xml:space="preserve">
<path d="M77.8,32.5H15.1c-2.8,0-5.1,2.2-5.1,5v25c0,2.8,2.3,5,5.1,5h62.8c2.8,0,5.1-2.2,5.1-5v-25C82.9,34.8,80.6,32.5,77.8,32.5z
	 M77.8,62.5H15.1v-25h62.8V62.5z"/>
<path d="M87.5,60L87.5,60c-1.4,0-2.6-1.1-2.6-2.5v-15c0-1.4,1.1-2.5,2.5-2.5h0.1c1.4,0,2.5,1.1,2.5,2.5v15C90,58.9,88.9,60,87.5,60z
	"/>
<rect x="17.2" y="39.5" width="58.5" height="21"/>
</svg>
