<?xml version="1.0" encoding="utf-8"?>
<!-- Generator: Adobe Illustrator 27.3.1, SVG Export Plug-In . SVG Version: 6.00 Build 0)  -->
<svg version="1.1" id="Слой_1" xmlns="http://www.w3.org/2000/svg" xmlns:xlink="http://www.w3.org/1999/xlink" x="0px" y="0px"
     viewBox="0 0 100 100" style="enable-background:new 0 0 100 100;" xml:space="preserve">
  <style type="text/css"> .st0{fill:#000000;} </style>
<path class="st0" d="M87.5,60L87.5,60c-1.4,0-2.6-1.1-2.6-2.5v-15c0-1.4,1.1-2.5,2.5-2.5h0.1c1.4,0,2.5,1.1,2.5,2.5v15C90,58.9,88.9,60,87.5,60z
	"/>
<g>
	<path class="st0" d="M39,62.5H15.1v-25H39v-5H15.1c-2.8,0-5.1,2.2-5.1,5v25c0,2.8,2.3,5,5.1,5H39V62.5z"/>
	<path class="st0" d="M77.8,32.5H54v5h23.9v25h-0.1H54v5h23.9c2.8,0,5.1-2.2,5.1-5v-25C82.9,34.8,80.6,32.5,77.8,32.5z"/>
</g>
<path class="st0" d="M47.7,67.5h-2.4c-0.7,0-1.3-0.6-1.3-1.3v-2.4c0-0.7,0.6-1.3,1.3-1.3h2.4c0.7,0,1.3,0.6,1.3,1.3v2.4
	C49,66.9,48.4,67.5,47.7,67.5z"/>
<path class="st0" d="M47.7,60h-2.4c-0.7,0-1.3-0.6-1.3-1.3V33.8c0-0.7,0.6-1.3,1.3-1.3h2.4c0.7,0,1.3,0.6,1.3,1.3v24.9C49,59.4,48.4,60,47.7,60z
	"/>
</svg>
