<?xml version="1.0" encoding="utf-8"?>
<!-- Generator: Adobe Illustrator 27.3.1, SVG Export Plug-In . SVG Version: 6.00 Build 0)  -->
<svg version="1.1" id="Слой_1" xmlns="http://www.w3.org/2000/svg" xmlns:xlink="http://www.w3.org/1999/xlink" x="0px" y="0px"
     viewBox="0 0 100 100" style="enable-background:new 0 0 100 100;" xml:space="preserve">
  <style type="text/css"> .st0{fill:#000000;} </style>
<path class="st0" d="M87.5,60L87.5,60c-1.4,0-2.6-1.1-2.6-2.5v-15c0-1.4,1.1-2.5,2.5-2.5h0.1c1.4,0,2.5,1.1,2.5,2.5v15C90,58.9,88.9,60,87.5,60z
	"/>
<g>
	<path class="st0" d="M77.8,32.5h-21v5h21.2v25h-0.1h-21v5h21.2c2.8,0,5.1-2.2,5.1-5v-25C82.9,34.8,80.6,32.5,77.8,32.5z"/>
	<path class="st0" d="M15.1,62.5v-25h21.2v-5H15.1c-2.8,0-5.1,2.2-5.1,5v25c0,2.8,2.3,5,5.1,5h21.2v-5H15.1z"/>
</g>
<g>
	<path class="st0" d="M56.3,50L56.3,50c0,1.4-1.1,2.5-2.5,2.5l-15,0c-1.4,0-2.5-1.1-2.5-2.5v0c0-1.4,1.1-2.5,2.5-2.5l15,0
		C55.2,47.5,56.3,48.6,56.3,50z"/>
	<path class="st0" d="M37.5,52.2L37.5,52.2c-1.2-0.7-1.6-2.2-0.9-3.4l8.7-15c0.7-1.2,2.2-1.6,3.4-0.9l0,0c1.2,0.7,1.6,2.2,0.9,3.4l-8.7,15
		C40.2,52.4,38.7,52.9,37.5,52.2z"/>
	<path class="st0" d="M44.3,67.2L44.3,67.2c-1.2-0.7-1.6-2.2-0.9-3.4l8.7-15c0.7-1.2,2.2-1.6,3.4-0.9l0,0c1.2,0.7,1.6,2.2,0.9,3.4l-8.7,15
		C47.1,67.4,45.5,67.9,44.3,67.2z"/>
</g>
</svg>
