<?xml version="1.0" encoding="utf-8"?>
<!-- Generator: Adobe Illustrator 27.3.1, SVG Export Plug-In . SVG Version: 6.00 Build 0)  -->
<svg version="1.1" id="Слой_1" xmlns="http://www.w3.org/2000/svg" xmlns:xlink="http://www.w3.org/1999/xlink" x="0px" y="0px"
	 viewBox="0 0 100 100" style="enable-background:new 0 0 100 100;" xml:space="preserve">
<style type="text/css">
	.st0{fill:#FFFFFF;stroke:#000000;stroke-width:5;stroke-miterlimit:10;}
</style>
<path class="st0" d="M40,80h-9.6C24.7,80,20,75.3,20,69.6V60"/>
<path class="st0" d="M80,60v9.6C80,75.3,75.3,80,69.6,80H60"/>
<path class="st0" d="M60,20h9.6C75.3,20,80,24.7,80,30.4V40"/>
<path class="st0" d="M20,40v-9.6C20,24.7,24.7,20,30.4,20H40"/>
<path d="M85,38.3"/>
<path d="M15,38.3"/>
<path class="st0" d="M61.5,67.5h-23c-3.3,0-6-2.7-6-6v-23c0-3.3,2.7-6,6-6h23c3.3,0,6,2.7,6,6v23C67.5,64.8,64.8,67.5,61.5,67.5z"/>
<path d="M87.5,47.5h-9.2c-1.4,0-2.5-1.1-2.5-2.5v0c0-1.4,1.1-2.5,2.5-2.5h9.2c1.4,0,2.5,1.1,2.5,2.5v0C90,46.4,88.9,47.5,87.5,47.5z
	"/>
<path d="M87.5,57.5h-9.2c-1.4,0-2.5-1.1-2.5-2.5v0c0-1.4,1.1-2.5,2.5-2.5h9.2c1.4,0,2.5,1.1,2.5,2.5v0C90,56.4,88.9,57.5,87.5,57.5z
	"/>
<path d="M21.7,47.5h-9.2c-1.4,0-2.5-1.1-2.5-2.5v0c0-1.4,1.1-2.5,2.5-2.5h9.2c1.4,0,2.5,1.1,2.5,2.5v0
	C24.2,46.4,23.1,47.5,21.7,47.5z"/>
<path d="M21.7,57.5h-9.2c-1.4,0-2.5-1.1-2.5-2.5v0c0-1.4,1.1-2.5,2.5-2.5h9.2c1.4,0,2.5,1.1,2.5,2.5v0
	C24.2,56.4,23.1,57.5,21.7,57.5z"/>
<path d="M47.5,12.5v9.2c0,1.4-1.1,2.5-2.5,2.5h0c-1.4,0-2.5-1.1-2.5-2.5v-9.2c0-1.4,1.1-2.5,2.5-2.5h0C46.4,10,47.5,11.1,47.5,12.5z
	"/>
<path d="M57.5,12.5v9.2c0,1.4-1.1,2.5-2.5,2.5h0c-1.4,0-2.5-1.1-2.5-2.5v-9.2c0-1.4,1.1-2.5,2.5-2.5h0C56.4,10,57.5,11.1,57.5,12.5z
	"/>
<path d="M47.5,78.3v9.2c0,1.4-1.1,2.5-2.5,2.5h0c-1.4,0-2.5-1.1-2.5-2.5v-9.2c0-1.4,1.1-2.5,2.5-2.5h0
	C46.4,75.8,47.5,76.9,47.5,78.3z"/>
<path d="M57.5,78.3v9.2c0,1.4-1.1,2.5-2.5,2.5h0c-1.4,0-2.5-1.1-2.5-2.5v-9.2c0-1.4,1.1-2.5,2.5-2.5h0
	C56.4,75.8,57.5,76.9,57.5,78.3z"/>
</svg>
