<?xml version="1.0" encoding="utf-8"?>
<!-- Generator: Adobe Illustrator 27.3.1, SVG Export Plug-In . SVG Version: 6.00 Build 0)  -->
<svg version="1.1" id="Слой_1" xmlns="http://www.w3.org/2000/svg" xmlns:xlink="http://www.w3.org/1999/xlink" x="0px" y="0px"
	 viewBox="0 0 100 100" style="enable-background:new 0 0 100 100;" xml:space="preserve">
<style type="text/css">
	.st0{fill:none;stroke:#000000;stroke-width:5;stroke-miterlimit:10;}
</style>
<path class="st0" d="M65,87.5H35c-2.8,0-5-2.1-5-4.7V17.2c0-2.6,2.2-4.7,5-4.7h30c2.8,0,5,2.1,5,4.7v65.6C70,85.4,67.8,87.5,65,87.5
	z"/>
<path d="M30,25.1H20c-1.4,0-2.5-1.1-2.5-2.5v-0.2c0-1.4,1.1-2.5,2.5-2.5H30c1.4,0,2.5,1.1,2.5,2.5v0.2C32.5,24,31.4,25.1,30,25.1z"
	/>
<path d="M30,34.2H20c-1.4,0-2.5-1.1-2.5-2.5v-0.2c0-1.4,1.1-2.5,2.5-2.5H30c1.4,0,2.5,1.1,2.5,2.5v0.2C32.5,33.1,31.4,34.2,30,34.2z
	"/>
<path d="M30,43.4H20c-1.4,0-2.5-1.1-2.5-2.5v-0.2c0-1.4,1.1-2.5,2.5-2.5H30c1.4,0,2.5,1.1,2.5,2.5v0.2C32.5,42.3,31.4,43.4,30,43.4z
	"/>
<path d="M30,52.5H20c-1.4,0-2.5-1.1-2.5-2.5v-0.2c0-1.4,1.1-2.5,2.5-2.5H30c1.4,0,2.5,1.1,2.5,2.5v0.2C32.5,51.4,31.4,52.5,30,52.5z
	"/>
<path d="M30,61.7H20c-1.4,0-2.5-1.1-2.5-2.5v-0.2c0-1.4,1.1-2.5,2.5-2.5H30c1.4,0,2.5,1.1,2.5,2.5v0.2C32.5,60.6,31.4,61.7,30,61.7z
	"/>
<path d="M30,70.8H20c-1.4,0-2.5-1.1-2.5-2.5v-0.2c0-1.4,1.1-2.5,2.5-2.5H30c1.4,0,2.5,1.1,2.5,2.5v0.2C32.5,69.7,31.4,70.8,30,70.8z
	"/>
<path d="M30,80H20c-1.4,0-2.5-1.1-2.5-2.5v-0.2c0-1.4,1.1-2.5,2.5-2.5H30c1.4,0,2.5,1.1,2.5,2.5v0.2C32.5,78.9,31.4,80,30,80z"/>
<path d="M80,25.1H70c-1.4,0-2.5-1.1-2.5-2.5v-0.2c0-1.4,1.1-2.5,2.5-2.5H80c1.4,0,2.5,1.1,2.5,2.5v0.2C82.5,24,81.4,25.1,80,25.1z"
	/>
<path d="M80,34.2H70c-1.4,0-2.5-1.1-2.5-2.5v-0.2c0-1.4,1.1-2.5,2.5-2.5H80c1.4,0,2.5,1.1,2.5,2.5v0.2C82.5,33.1,81.4,34.2,80,34.2z
	"/>
<path d="M80,43.4H70c-1.4,0-2.5-1.1-2.5-2.5v-0.2c0-1.4,1.1-2.5,2.5-2.5H80c1.4,0,2.5,1.1,2.5,2.5v0.2C82.5,42.3,81.4,43.4,80,43.4z
	"/>
<path d="M80,52.5H70c-1.4,0-2.5-1.1-2.5-2.5v-0.2c0-1.4,1.1-2.5,2.5-2.5H80c1.4,0,2.5,1.1,2.5,2.5v0.2C82.5,51.4,81.4,52.5,80,52.5z
	"/>
<path d="M80,61.7H70c-1.4,0-2.5-1.1-2.5-2.5v-0.2c0-1.4,1.1-2.5,2.5-2.5H80c1.4,0,2.5,1.1,2.5,2.5v0.2C82.5,60.6,81.4,61.7,80,61.7z
	"/>
<path d="M80,70.8H70c-1.4,0-2.5-1.1-2.5-2.5v-0.2c0-1.4,1.1-2.5,2.5-2.5H80c1.4,0,2.5,1.1,2.5,2.5v0.2C82.5,69.7,81.4,70.8,80,70.8z
	"/>
<path d="M80,80H70c-1.4,0-2.5-1.1-2.5-2.5v-0.2c0-1.4,1.1-2.5,2.5-2.5H80c1.4,0,2.5,1.1,2.5,2.5v0.2C82.5,78.9,81.4,80,80,80z"/>
</svg>
