<?xml version="1.0" encoding="utf-8"?>
<!-- Generator: Adobe Illustrator 27.3.1, SVG Export Plug-In . SVG Version: 6.00 Build 0)  -->
<svg version="1.1" id="Слой_1" xmlns="http://www.w3.org/2000/svg" xmlns:xlink="http://www.w3.org/1999/xlink" x="0px" y="0px"
	 viewBox="0 0 100 100" style="enable-background:new 0 0 100 100;" xml:space="preserve">
<style type="text/css">
	.st0{fill:none;stroke:#000000;stroke-width:5;stroke-linecap:round;stroke-linejoin:round;}
</style>
<path class="st0" d="M59.2,60V19.1c0-5-4.1-9.1-9.2-9.1s-9.2,4.1-9.2,9.1V60c-7.6,5-9.6,15.2-4.6,22.7c5.1,7.5,15.3,9.5,22.9,4.5
	c7.6-5,9.6-15.2,4.6-22.7C62.5,62.8,61,61.2,59.2,60z"/>
<circle cx="50" cy="73.5" r="12.5"/>
<path d="M55,66H45v0c0-2.7,2.2-5,5-5h0C52.8,61,55,63.2,55,66L55,66z"/>
</svg>
