<?xml version="1.0" encoding="utf-8"?>
<!-- Generator: Adobe Illustrator 27.3.1, SVG Export Plug-In . SVG Version: 6.00 Build 0)  -->
<svg version="1.1" id="Слой_1" xmlns="http://www.w3.org/2000/svg" xmlns:xlink="http://www.w3.org/1999/xlink" x="0px" y="0px"
	 viewBox="0 0 100 100" style="enable-background:new 0 0 100 100;" xml:space="preserve">
<style type="text/css"> .st0{fill:#7DF9FF;} </style>
<path class="st0" d="M50,90c-22.1,0-40-17.9-40-40s17.9-40,40-40c22.1,0,40,17.9,40,40S72.1,90,50,90z M50,15c-19.3,0-35,15.7-35,35
	c0,19.3,15.7,35,35,35s35-15.7,35-35C85,30.7,69.3,15,50,15z"/>
<path class="st0" transform="translate(0 0) rotate(120, 50, 50)" d="M50,19.4L50,19.4c-1.4,0-2.5,1-2.5,2.4v28.3c0,1.3,1.1,2.4,2.5,2.4l0,0c1.4,0,2.5-1,2.5-2.4V21.8
	C52.5,20.4,51.4,19.4,50,19.4z"/>
<path class="st0" transform="translate(0) rotate(210, 50, 50)" d="M50,27.4L50,27.4c-1.4,0-2.5,1.1-2.5,2.5v20c0,1.4,1.1,2.5,2.5,2.5l0,0c1.4,0,2.5-1.1,2.5-2.5v-20
	C52.5,28.5,51.4,27.4,50,27.4z"/>
</svg>
