<?xml version="1.0" encoding="utf-8"?>
<!-- Generator: Adobe Illustrator 27.3.1, SVG Export Plug-In . SVG Version: 6.00 Build 0)  -->
<svg version="1.1" id="Слой_1" xmlns="http://www.w3.org/2000/svg" xmlns:xlink="http://www.w3.org/1999/xlink" x="0px" y="0px"
	 viewBox="0 0 100 100" style="enable-background:new 0 0 100 100;" xml:space="preserve">
<style type="text/css">
	.st0{fill:none;stroke:#000000;stroke-width:5;stroke-miterlimit:10;}
</style>
<circle class="st0" cx="50" cy="50" r="37.5"/>
<path d="M50,17.2L50,17.2c-1.4,0-2.5,1-2.5,2.4v28.3c0,1.3,1.1,2.4,2.5,2.4l0,0c1.4,0,2.5-1,2.5-2.4V19.6
	C52.5,18.2,51.4,17.2,50,17.2z"/>
<path d="M50,25.2L50,25.2c-1.4,0-2.5,1.1-2.5,2.5v20c0,1.4,1.1,2.5,2.5,2.5l0,0c1.4,0,2.5-1.1,2.5-2.5v-20
	C52.5,26.3,51.4,25.2,50,25.2z"/>
</svg>
